<svg width="49" height="49" viewBox="0 0 49 49" fill="none" xmlns="http://www.w3.org/2000/svg">
<path d="M23.9094 0.125C1.85217 0.125 0.125 1.85217 0.125 23.9094V24.3406C0.125 46.3978 1.85217 48.125 23.9094 48.125H24.3406C46.3978 48.125 48.125 46.3978 48.125 24.3406V24.125C48.125 1.8674 46.3826 0.125 24.125 0.125H23.9094ZM19.325 4.925H28.925C42.2798 4.925 43.325 5.9702 43.325 19.325V28.925C43.325 42.2798 42.2798 43.325 28.925 43.325H19.325C5.9702 43.325 4.925 42.2798 4.925 28.925V19.325C4.925 5.9702 5.9702 4.925 19.325 4.925ZM36.118 9.725C34.792 9.7286 33.7214 10.806 33.725 12.132C33.7286 13.458 34.806 14.5286 36.132 14.525C37.458 14.5214 38.5286 13.444 38.525 12.118C38.5214 10.792 37.444 9.7214 36.118 9.725ZM24.0969 12.125C17.4705 12.1406 12.1094 17.5267 12.125 24.1531C12.1406 30.7795 17.5267 36.1406 24.1531 36.125C30.7795 36.1094 36.1406 30.7233 36.125 24.0969C36.1094 17.4705 30.7233 12.1094 24.0969 12.125ZM24.1086 16.925C28.0842 16.9154 31.3154 20.133 31.325 24.1086C31.3334 28.0842 28.117 31.3154 24.1414 31.325C20.1658 31.3346 16.9346 28.1182 16.925 24.1414C16.9154 20.1658 20.133 16.9346 24.1086 16.925Z" fill="#AB8224"/>
</svg>
