<svg width="145" height="135" viewBox="0 0 145 135" fill="none" xmlns="http://www.w3.org/2000/svg">
<path fill-rule="evenodd" clip-rule="evenodd" d="M85.8 27.6998L111.2 54.9998L114 57.9998L126.7 100.9L101.5 69.3998L99.7001 65.5998L85.8 27.6998ZM120.7 109.7L108.8 84.7998L127.7 108.4L125.3 108.8L120.7 109.7ZM83.4001 19.3998C83.6001 19.1331 83.8334 18.8332 84.1001 18.4998C84.5667 18.0331 85.0001 17.5331 85.4001 16.9998C85.6001 16.7998 85.8001 16.5665 86.0001 16.2998C90.7001 22.5998 96.5 30.8998 102.8 40.2998L83.4001 19.3998ZM81.5001 15.6998L77.8 5.39981C79.5 7.59981 81.5001 10.1998 83.7001 13.0998C83.3001 13.4998 82.9334 13.9331 82.6001 14.3998C82.3334 14.6665 82.0667 14.9665 81.8 15.2998C81.6667 15.4331 81.5667 15.5665 81.5001 15.6998ZM65.6001 18.9998L72.1001 0.799805L74.1001 6.2998L78.6001 18.9998C78.4667 19.1998 78.3334 19.3665 78.2001 19.4998C77.8001 19.8998 77.4334 20.2998 77.1001 20.6998C76.9001 20.9665 76.6667 21.2332 76.4001 21.4998C76.0667 21.8998 75.7334 22.2998 75.4001 22.6998C75.2001 22.8998 75 23.1331 74.8 23.3998C74.2667 23.9331 73.8001 24.4331 73.4001 24.8998C73.3334 24.9665 73.3 24.9998 73.3 24.9998C72.8334 25.4665 72.4334 25.8998 72.1001 26.2998C71.4001 25.4998 70.5001 24.4998 69.5001 23.3998C69.2334 23.1331 69 22.8665 68.8 22.5998C68.5334 22.2665 68.2334 21.9332 67.9001 21.5998C67.6334 21.2665 67.3667 20.9665 67.1001 20.6998C66.7667 20.2998 66.4334 19.9332 66.1001 19.5998C65.9667 19.3998 65.8001 19.1998 65.6001 18.9998ZM120.6 118.9L93.4001 115.1L118.5 114L120.6 118.9ZM50.8 115L23.6001 118.9L25.7001 113.9L50.8 115ZM35.4001 84.7998L23.5001 109.7L19.2001 108.9L16.5001 108.4L35.4001 84.7998ZM132.7 107.5L122.2 71.6998C129 83.8998 134.6 95.4998 139 106.3L136.1 106.9L132.7 107.5ZM91.7001 54.7998L79.6001 36.6998L74.6001 29.2998C74.6001 29.1998 74.7001 29.1998 74.7001 29.0998C74.9001 28.8998 75.1334 28.6665 75.4001 28.3998C75.5334 28.2665 75.6667 28.0998 75.8 27.8998C76.0667 27.6331 76.3334 27.3332 76.6001 26.9998C76.8001 26.8665 76.9667 26.6998 77.1001 26.4998C77.4334 26.1665 77.7334 25.7998 78.0001 25.3998C78.2001 25.1998 78.4334 24.9998 78.7001 24.7998C78.9667 24.3998 79.3001 23.9998 79.7001 23.5998C79.8334 23.4665 79.9667 23.2998 80.1001 23.0998L91.7001 54.7998ZM72.2001 112L31.5001 110.2L27.6001 110L46.0001 71.4998L60.8 49.3998L72.2001 32.5998L82.8 48.3998L98.3 71.4998L116.7 110L113.5 110.2L72.2001 112ZM69.7001 29.2998L52.6001 54.6998L64.2001 23.0998C64.3334 23.2998 64.5001 23.4998 64.7001 23.6998C64.9667 24.0332 65.2667 24.3665 65.6001 24.6998C65.8667 25.0332 66.1334 25.3332 66.4001 25.5998C66.6001 25.8665 66.8334 26.1331 67.1001 26.3998C67.3667 26.6665 67.6001 26.9332 67.8 27.1998C68 27.3998 68.2001 27.5998 68.4001 27.7998C68.6001 28.0665 68.8001 28.2998 69.0001 28.4998C69.2667 28.7665 69.5001 29.0331 69.7001 29.2998ZM8.30005 106.9L5.40005 106.3C9.70006 95.4998 15.4001 83.8998 22.2001 71.5998L11.6001 107.5L8.30005 106.9ZM92.6001 128.4L72.2001 134.4L51.8 128.4L29.8 122L72.2001 116L114.5 122L92.6001 128.4ZM129.4 124.7L140.5 127.6C137 128.4 132.2 129.4 125.7 130.4V123.8L129.4 124.7ZM140.4 110C141.8 113.6 143.033 117.033 144.1 120.3L135.3 110.9L140.4 110ZM138.8 120.5L142 123.9L125.1 119.6L122.5 113.3L125.8 112.7L130.7 111.9L138.8 120.5ZM61.7001 14.2998C61.3667 13.8331 61.0001 13.3665 60.6001 12.8998C62.8001 10.0998 64.7001 7.4998 66.4001 5.2998L65.8 7.19983L62.8 15.4998C62.6667 15.3665 62.5667 15.2665 62.5001 15.1998C62.2334 14.8665 61.9667 14.5665 61.7001 14.2998ZM109.3 127.5L121.9 123.8V130.9C111.6 132.3 100.1 133.3 87.5001 133.9L109.3 127.5ZM4.10007 116.3L0.300049 120.3C1.36672 117.033 2.60006 113.6 4.00006 110L9.10007 111L4.10007 116.3ZM60.9001 19.1998L41.5001 40.0998C47.7001 30.6998 53.6 22.3998 58.3 16.0998C58.5 16.3665 58.7001 16.5998 58.9001 16.7998C59.3001 17.2665 59.7001 17.7332 60.1001 18.1998C60.3667 18.5332 60.6334 18.8665 60.9001 19.1998ZM15.0001 124.6L18.7001 123.7V130.3C12.3001 129.3 7.40005 128.3 3.90005 127.5L15.0001 124.6ZM17.9001 112.5L21.9001 113.2L19.2001 119.4L2.30005 123.8L5.60007 120.4L13.7001 111.7L17.9001 112.5ZM17.6001 100.8L25.6001 73.6998L30.2001 57.8998L58.4001 27.4998L44.7001 65.2998L42.8 69.2998L17.6001 100.8ZM35.0001 127.5L56.8 133.9C44.2001 133.3 32.7001 132.3 22.4001 130.9V123.8L35.0001 127.5Z" fill="#1E1713"/>
</svg>
