<svg width="98" height="74" viewBox="0 0 98 74" fill="none" xmlns="http://www.w3.org/2000/svg">
<g clip-path="url(#clip0_211_46)">
<path d="M48.3004 62.8002C50.5004 62.8002 52.5004 62.5002 54.5004 61.8002C53.5004 61.4002 52.8004 60.6002 52.4004 59.6002L51.6004 57.2002C51.0004 58.2002 50.2004 59.2002 49.5004 60.1002C49.4004 60.2002 49.4004 60.3002 49.3004 60.3002C49.0004 60.3002 48.7004 60.3002 48.4004 60.3002C48.1004 60.3002 47.8004 60.3002 47.5004 60.3002C47.4004 60.2002 47.4004 60.1002 47.3004 60.1002C45.5004 58.0002 44.0004 55.4002 42.9004 52.6002C44.7004 52.3002 46.5004 52.1002 48.5004 52.1002C49.0004 52.1002 49.5004 52.1002 50.0004 52.1002L49.1004 49.6002C48.9004 49.6002 48.7004 49.6002 48.5004 49.6002C46.3004 49.6002 44.2004 49.8002 42.2004 50.2002C41.6004 48.2002 41.3004 46.0002 41.2004 43.8002H47.1004L46.7004 42.6002C46.5004 42.2002 46.5004 41.8002 46.5004 41.3002H41.2004C41.3004 39.1002 41.6004 36.9002 42.2004 34.9002C44.2004 35.3002 46.3004 35.5002 48.5004 35.5002C50.7004 35.5002 52.8004 35.3002 54.8004 34.9002C55.2004 36.3002 55.5004 37.9002 55.6004 39.4002L58.1004 40.3002C58.0004 38.2002 57.6004 36.2002 57.1004 34.3002C59.0004 33.7002 60.9004 33.0002 62.6004 32.1002C62.7004 32.1002 62.7004 32.0002 62.8004 32.0002C64.7004 34.6002 66.0004 37.8002 66.2004 41.3002H61.1004L68.3004 43.8002C68.4004 43.8002 68.5004 43.9002 68.6004 43.9002C68.6004 43.4002 68.7004 43.0002 68.7004 42.5002C68.7004 31.3002 59.6004 22.2002 48.4004 22.2002C37.2004 22.2002 28.1004 31.3002 28.1004 42.5002C28.0004 53.7002 37.1004 62.8002 48.3004 62.8002ZM43.6004 59.4002C43.7004 59.5002 43.7004 59.6002 43.8004 59.7002C40.6004 58.9002 37.8004 57.2002 35.6004 54.9002C35.7004 54.9002 35.7004 54.8002 35.8004 54.8002C37.2004 54.1002 38.8004 53.5002 40.4004 53.0002C41.1004 55.4002 42.2004 57.5002 43.6004 59.4002ZM61.0004 30.0002C60.9004 30.0002 60.9004 30.1002 60.8004 30.1002C59.4004 30.8002 57.8004 31.4002 56.2004 31.8002C55.4004 29.5002 54.3004 27.4002 52.9004 25.5002C52.8004 25.4002 52.8004 25.3002 52.7004 25.2002C55.9004 26.1002 58.7004 27.8002 61.0004 30.0002ZM47.3004 24.7002C47.6004 24.7002 47.9004 24.7002 48.2004 24.7002C48.5004 24.7002 48.8004 24.7002 49.1004 24.7002C49.2004 24.8002 49.2004 24.8002 49.3004 24.9002C51.1004 27.0002 52.6004 29.6002 53.7004 32.4002C51.9004 32.7002 50.1004 32.9002 48.2004 32.9002C46.3004 32.9002 44.4004 32.7002 42.6004 32.4002C43.7004 29.5002 45.2004 27.0002 47.0004 24.9002C47.2004 24.8002 47.3004 24.8002 47.3004 24.7002ZM43.7004 25.3002C43.6004 25.4002 43.6004 25.5002 43.5004 25.6002C42.2004 27.5002 41.1004 29.6002 40.2004 32.0002C38.6004 31.5002 37.1004 31.0002 35.6004 30.3002C35.5004 30.3002 35.5004 30.2002 35.4004 30.2002C37.8004 27.8002 40.6004 26.1002 43.7004 25.3002ZM33.9004 31.9002C34.0004 31.9002 34.0004 32.0002 34.1004 32.0002C35.8004 32.9002 37.6004 33.6002 39.6004 34.2002C39.0004 36.4002 38.6004 38.8002 38.5004 41.2002H30.5004C30.7004 37.8002 32.0004 34.6002 33.9004 31.9002ZM38.5004 43.7002C38.6004 46.1002 39.0004 48.5002 39.6004 50.7002C37.7004 51.3002 35.8004 52.0002 34.1004 52.9002C34.0004 52.9002 34.0004 53.0002 33.9004 53.0002C32.0004 50.4002 30.7004 47.2002 30.5004 43.7002H38.5004Z" fill="#AB8224"/>
<path d="M67.3995 47.9999C68.0995 47.6999 67.9996 46.7 67.2996 46.4L50.1995 40.4999C49.4995 40.2999 48.8995 40.9 49.0995 41.6L54.9995 58.6999C55.2995 59.3999 56.2995 59.5 56.5995 58.8L58.6995 54.6999L67.0995 63.0999C67.3995 63.3999 67.9996 63.3999 68.2996 63.0999L71.6995 59.6999C71.9995 59.3999 71.9995 58.7999 71.6995 58.4999L63.2996 50.1L67.3995 47.9999Z" fill="#AB8224"/>
<path d="M92.6 0H5.30005C2.40005 0 0 2.40005 0 5.30005V68.4C0 71.3 2.40005 73.7001 5.30005 73.7001H92.6C95.5 73.7001 97.9 71.3 97.9 68.4V5.30005C97.9 2.40005 95.5 0 92.6 0ZM95.1 68.5C95.1 69.9 94 71 92.6 71H5.30005C3.90005 71 2.80005 69.9 2.80005 68.5V13.8H95.2V68.5H95.1ZM95.1 11H2.70001V5.30005C2.70001 3.90005 3.80001 2.80005 5.20001 2.80005H92.5C93.9 2.80005 95 3.90005 95 5.30005V11H95.1Z" fill="#AB8224"/>
<path d="M66.4998 5.5H31.1998C30.3998 5.5 29.7998 6.10002 29.7998 6.90002C29.7998 7.70002 30.3998 8.30005 31.1998 8.30005H66.4998C67.2998 8.30005 67.8998 7.70002 67.8998 6.90002C67.8998 6.10002 67.2998 5.5 66.4998 5.5Z" fill="#AB8224"/>
<path d="M6.69977 8.30005C7.47297 8.30005 8.09979 7.67322 8.09979 6.90002C8.09979 6.12683 7.47297 5.5 6.69977 5.5C5.92657 5.5 5.2998 6.12683 5.2998 6.90002C5.2998 7.67322 5.92657 8.30005 6.69977 8.30005Z" fill="#AB8224"/>
<path d="M11.3004 8.30005C12.0736 8.30005 12.7004 7.67322 12.7004 6.90002C12.7004 6.12683 12.0736 5.5 11.3004 5.5C10.5272 5.5 9.90039 6.12683 9.90039 6.90002C9.90039 7.67322 10.5272 8.30005 11.3004 8.30005Z" fill="#AB8224"/>
<path d="M15.9996 8.30005C16.7728 8.30005 17.3996 7.67322 17.3996 6.90002C17.3996 6.12683 16.7728 5.5 15.9996 5.5C15.2264 5.5 14.5996 6.12683 14.5996 6.90002C14.5996 7.67322 15.2264 8.30005 15.9996 8.30005Z" fill="#AB8224"/>
</g>
<defs>
<clipPath id="clip0_211_46">
<rect width="98" height="74" fill="white"/>
</clipPath>
</defs>
</svg>
